if (_typeface_js && _typeface_js.loadFace) _typeface_js.loadFace({"glyphs":{"S":{"x_min":-20.828125,"x_max":707,"ha":783,"o":"m 707 238 q 676 139 702 186 q 602 58 650 93 q 488 3 555 23 q 337 -16 420 -16 q 213 1 272 -16 q 109 53 155 19 q 29 136 62 87 q -20 247 -4 186 l 216 345 l 230 315 q 238 302 229 315 q 263 275 247 290 q 301 250 280 261 q 344 241 322 238 q 363 246 354 243 q 381 257 373 250 q 395 275 390 265 q 398 301 400 286 q 381 337 397 319 q 337 375 365 355 q 284 409 309 393 q 236 440 259 425 q 139 502 183 472 q 63 566 95 531 q 14 646 31 601 q -2 755 -2 691 q 26 882 -2 827 q 104 972 55 936 q 215 1029 152 1009 q 344 1050 277 1048 q 486 1026 425 1050 q 588 965 547 1002 q 654 880 630 927 q 684 787 677 833 l 450 694 q 437 730 445 711 q 416 767 429 750 q 386 795 404 784 q 345 807 368 807 q 306 793 323 807 q 288 754 288 780 q 309 716 288 734 q 370 668 329 698 l 369 668 q 495 594 434 632 q 603 509 556 556 q 678 402 650 462 q 707 259 707 341 l 707 240 l 707 238 m 673 259 q 646 391 673 334 q 573 491 619 447 q 468 572 527 536 q 347 643 409 608 q 277 699 300 677 q 255 754 255 720 q 283 818 255 797 q 345 840 311 840 q 395 830 373 840 q 431 806 416 820 q 457 773 447 791 q 473 738 468 755 q 559 773 518 757 q 647 808 601 790 q 617 883 638 845 q 559 950 595 920 q 468 998 522 980 q 344 1016 415 1016 q 227 998 283 1015 q 127 947 170 980 q 56 867 83 915 q 30 755 30 819 q 47 658 30 698 q 93 585 63 618 q 163 525 123 552 q 252 468 204 497 l 356 402 q 411 355 393 379 q 431 304 430 331 q 425 263 433 280 q 406 234 418 245 q 379 216 394 223 q 350 208 363 209 q 300 215 325 205 q 256 240 276 225 q 224 272 237 255 q 205 305 211 290 l 20 227 q 137 72 52 127 q 337 16 222 16 q 472 34 412 16 q 576 83 533 52 q 644 154 619 113 q 673 241 669 195 l 673 259 "},"/":{"x_min":-133.34375,"x_max":463.921875,"ha":329,"o":"m 220 1016 q 143 764 181 888 q 66 516 105 640 q -11 268 27 393 q -88 16 -50 144 l 109 16 q 186 268 148 144 q 263 516 225 393 q 341 764 302 640 q 419 1016 379 888 l 220 1016 m 134 -16 l -133 -16 l 195 1050 l 463 1050 l 134 -16 "},"K":{"x_min":-16.671875,"x_max":723.671875,"ha":779,"o":"m 326 515 q 524 248 422 387 q 722 -16 626 109 l 391 -16 l 250 173 l 250 -16 l -16 -16 l -16 1050 l 250 1050 l 250 847 l 393 1050 l 723 1050 l 326 515 m 409 1016 l 216 740 l 216 1016 l 16 1016 l 16 16 l 216 16 l 216 275 l 408 16 l 654 16 q 469 266 562 140 q 284 515 376 393 l 657 1016 l 409 1016 "},"7":{"x_min":-36.109375,"x_max":675.046875,"ha":722,"o":"m 675 1050 l 675 780 l 251 -16 l -36 -16 l 380 769 l -15 769 l -15 1050 l 548 1050 l 562 1050 l 675 1050 m 548 1016 l 18 1016 l 18 802 l 438 802 l 22 16 l 229 16 l 641 791 l 641 1016 l 562 1016 l 548 1016 "},"d":{"x_min":-16.671875,"x_max":712.5625,"ha":807,"o":"m 712 516 q 688 312 712 409 q 607 142 663 215 q 461 26 551 69 q 238 -16 370 -16 l 208 -16 l -16 -16 l -16 1050 l 208 1050 q 427 1009 333 1050 q 585 897 522 969 q 680 728 648 826 q 712 516 712 630 m 679 516 q 649 715 679 623 q 560 873 619 807 q 413 978 501 940 q 208 1016 325 1016 l 16 1016 l 16 16 l 208 16 l 238 16 q 445 56 361 16 q 581 165 529 97 q 656 325 633 234 q 679 516 679 415 "},",":{"x_min":-15.28125,"x_max":208.34375,"ha":324,"o":"m 208 208 l 208 -5 l 129 -145 l 9 -145 l 41 -16 l -15 -16 l -15 208 l 208 208 m 18 175 l 18 16 l 83 16 l 51 -112 l 106 -112 q 141 -53 125 -80 q 175 5 158 -26 l 175 175 l 18 175 "},"Y":{"x_min":-37.5,"x_max":782,"ha":801,"o":"m 491 511 l 491 -16 l 238 -16 l 238 512 q 100 782 172 643 q -37 1050 29 920 l 261 1050 l 372 826 l 480 1050 l 782 1050 l 491 511 m 502 1016 l 372 751 l 241 1016 l 16 1016 q 144 768 79 893 q 272 520 209 644 l 272 16 l 458 16 l 458 522 l 725 1016 l 502 1016 "},"E":{"x_min":-16.671875,"x_max":650.046875,"ha":725,"o":"m 250 783 l 250 650 l 544 650 l 544 383 l 250 383 l 250 250 l 650 250 l 650 -16 l -16 -16 l -16 1050 l 650 1050 l 650 783 l 250 783 m 616 1016 l 16 1016 l 16 16 l 616 16 l 616 216 l 216 216 l 216 416 l 511 416 l 511 616 l 216 616 l 216 816 l 616 816 l 616 1016 "},"y":{"x_min":-37.5,"x_max":782,"ha":801,"o":"m 491 511 l 491 -16 l 238 -16 l 238 512 q 100 782 172 643 q -37 1050 29 920 l 261 1050 l 372 826 l 480 1050 l 782 1050 l 491 511 m 502 1016 l 372 751 l 241 1016 l 16 1016 q 144 768 79 893 q 272 520 209 644 l 272 16 l 458 16 l 458 522 l 725 1016 l 502 1016 "},"\"":{"x_min":-18.0625,"x_max":325.03125,"ha":326,"o":"m 16 1016 q 23 939 19 975 q 30 859 27 904 l 109 859 q 116 936 112 900 q 123 1016 120 973 l 16 1016 m 158 1050 l 141 826 l -1 826 l -18 1050 l 158 1050 m 183 1016 q 190 939 186 975 q 197 859 194 904 l 276 859 q 283 936 279 900 q 290 1016 287 973 l 183 1016 m 325 1050 l 308 826 l 165 826 l 148 1050 l 325 1050 "},"g":{"x_min":-13.890625,"x_max":765.34375,"ha":878,"o":"m 765 186 q 698 109 737 145 q 611 43 659 72 q 507 -1 563 15 q 388 -18 451 -18 q 218 13 293 -18 q 93 102 144 45 q 15 236 43 158 q -13 406 -11 315 l -13 620 q 11 784 -13 707 q 88 921 37 862 q 215 1015 140 980 q 390 1050 290 1050 q 531 1024 475 1047 q 626 969 588 1001 q 686 902 663 937 q 722 838 708 866 q 732 820 725 832 q 747 797 738 809 l 525 650 q 508 687 518 666 q 483 726 498 708 q 445 757 468 744 q 391 769 423 769 q 293 727 329 769 q 256 616 256 686 l 256 415 q 297 301 256 345 q 401 255 338 256 q 469 268 443 254 q 508 306 495 283 l 508 336 l 398 336 l 398 569 l 765 569 l 765 186 m 431 536 l 431 369 l 541 369 l 541 295 q 491 241 525 262 q 401 222 456 220 q 331 236 363 222 q 274 277 298 251 q 236 338 250 302 q 223 415 223 373 l 223 616 q 269 751 223 700 q 391 802 315 802 q 451 793 426 802 q 493 768 476 783 q 522 734 511 752 q 540 700 533 716 q 619 752 583 727 q 700 807 655 777 l 691 825 q 656 880 679 850 q 599 939 634 911 q 512 989 563 968 q 388 1016 461 1011 q 231 982 300 1015 q 115 895 162 950 q 43 770 68 841 q 19 620 19 700 l 19 406 q 53 258 26 329 q 127 133 80 187 q 240 47 175 79 q 390 15 305 15 q 498 30 447 15 q 593 70 550 45 q 671 128 636 95 q 732 197 707 161 l 732 536 l 431 536 "},"–":{"x_min":-16.671875,"x_max":734.78125,"ha":814,"o":"m 701 634 l 16 634 l 16 434 l 701 434 l 701 634 m -16 401 l -16 668 l 734 668 l 734 401 l -16 401 "},"e":{"x_min":-16.671875,"x_max":650.046875,"ha":725,"o":"m 250 783 l 250 650 l 544 650 l 544 383 l 250 383 l 250 250 l 650 250 l 650 -16 l -16 -16 l -16 1050 l 650 1050 l 650 783 l 250 783 m 616 1016 l 16 1016 l 16 16 l 616 16 l 616 216 l 216 216 l 216 416 l 511 416 l 511 616 l 216 616 l 216 816 l 616 816 l 616 1016 "},"J":{"x_min":-16.671875,"x_max":657,"ha":736,"o":"m 657 315 q 629 170 657 231 q 556 66 602 108 q 450 4 511 25 q 319 -16 388 -16 q 188 4 250 -16 q 81 67 127 25 q 9 172 36 109 q -16 320 -16 236 l -16 440 l 254 440 l 254 334 q 272 284 254 305 q 319 263 291 263 q 366 284 347 263 q 386 334 386 305 l 386 1050 l 657 1050 l 657 315 m 419 1016 l 419 334 q 391 260 419 290 q 319 230 362 230 q 248 260 276 230 q 220 334 220 290 l 220 406 l 16 406 l 16 320 q 40 187 16 244 q 105 92 63 130 q 202 35 147 54 q 319 16 256 16 q 436 35 381 16 q 533 91 491 54 q 599 184 575 129 q 623 315 623 240 l 623 1016 l 419 1016 "},"|":{"x_min":-16.671875,"x_max":250.015625,"ha":329,"o":"m 16 1127 l 16 -94 l 216 -94 l 216 1127 l 16 1127 m 250 -127 l -16 -127 l -16 1161 l 250 1161 l 250 -127 "},"^":{"x_min":0,"x_max":0,"ha":1157},"q":{"x_min":-13.890625,"x_max":895.90625,"ha":924,"o":"m 754 -16 l 584 -16 l 527 -16 q 466 -17 500 -16 q 388 -18 431 -18 q 289 -9 331 -18 q 213 15 247 -1 q 150 55 179 31 q 91 111 120 79 q 9 248 33 172 q -13 411 -13 325 l -13 652 q 15 797 -8 729 q 91 920 38 866 q 227 1016 150 983 q 390 1050 304 1050 q 550 1016 473 1050 q 687 920 626 983 q 762 797 738 866 q 793 654 786 729 l 793 622 l 793 494 l 793 425 l 793 394 q 786 320 791 355 q 765 254 780 286 q 832 257 797 255 q 895 261 868 259 l 895 -13 l 754 -16 m 862 19 l 862 227 q 782 222 827 225 q 708 219 737 220 q 749 311 740 272 q 759 394 758 350 l 759 425 l 759 494 l 759 622 l 759 652 l 759 651 q 731 785 752 722 q 662 898 709 848 q 538 986 608 955 q 388 1016 468 1016 q 240 986 311 1016 q 116 898 170 957 q 46 785 68 848 q 19 651 25 722 l 19 652 l 19 411 q 41 261 19 331 q 116 133 63 190 q 169 85 141 106 q 229 47 197 63 q 301 23 262 31 q 390 15 340 15 q 466 15 431 15 q 527 16 500 16 l 584 16 l 754 16 l 862 19 "},"b":{"x_min":-16.671875,"x_max":627.828125,"ha":706,"o":"m 555 786 q 523 642 555 702 q 450 551 491 581 q 532 507 498 537 q 587 440 566 477 q 618 361 608 402 q 627 283 627 319 q 609 168 627 223 q 554 72 591 113 q 463 6 518 30 q 337 -18 409 -18 l -16 -18 l -16 1048 l 247 1048 q 384 1026 326 1047 q 480 970 443 1005 q 536 887 518 934 q 555 786 555 840 m 383 559 q 430 576 405 559 q 475 622 455 593 q 509 694 495 652 q 522 786 522 736 q 505 874 522 833 q 455 946 488 915 q 370 995 422 977 q 247 1015 318 1013 l 16 1015 l 16 15 l 337 15 q 449 36 401 15 q 529 95 497 58 q 578 180 562 131 q 594 283 594 229 q 583 363 594 320 q 547 441 572 405 q 481 502 522 477 q 383 526 441 526 l 383 559 "},"D":{"x_min":-16.671875,"x_max":712.5625,"ha":807,"o":"m 712 516 q 688 312 712 409 q 607 142 663 215 q 461 26 551 69 q 238 -16 370 -16 l 208 -16 l -16 -16 l -16 1050 l 208 1050 q 427 1009 333 1050 q 585 897 522 969 q 680 728 648 826 q 712 516 712 630 m 679 516 q 649 715 679 623 q 560 873 619 807 q 413 978 501 940 q 208 1016 325 1016 l 16 1016 l 16 16 l 208 16 l 238 16 q 445 56 361 16 q 581 165 529 97 q 656 325 633 234 q 679 516 679 415 "},"z":{"x_min":-16.671875,"x_max":676.4375,"ha":765,"o":"m 676 795 l 327 250 l 676 250 l 676 -16 l -16 -16 l -16 238 l 343 783 l -16 783 l -16 1050 l 676 1050 l 676 795 m 16 1016 l 16 816 l 405 816 l 16 227 l 16 16 l 643 16 l 643 216 l 269 216 l 643 804 l 643 1016 l 16 1016 "},"w":{"x_min":-19.453125,"x_max":1219.546875,"ha":1299,"o":"m 1219 1050 l 916 -16 l 680 -16 l 598 359 q 552 170 575 266 q 505 -16 529 73 l 254 -16 l -19 1050 l 291 1050 l 387 643 l 481 1050 l 705 1050 l 800 643 l 894 1050 l 1219 1050 m 815 558 l 784 558 l 677 1016 l 509 1016 l 402 558 l 372 558 l 263 1016 l 25 1016 l 281 16 l 477 16 l 584 447 l 615 445 l 708 16 l 890 16 l 1175 1016 l 922 1016 l 815 558 "},"$":{"x_min":-15.28125,"x_max":573.65625,"ha":631,"o":"m 279 658 q 393 635 340 658 q 487 572 447 612 q 550 478 527 531 q 573 363 573 425 q 534 213 573 280 q 426 108 494 147 l 426 -16 l 159 -16 l 159 94 q 32 206 80 129 q -15 380 -15 283 l 248 380 q 257 347 248 361 q 279 333 266 333 q 300 342 291 333 q 309 363 309 351 q 286 393 309 390 l 287 393 l 279 393 q 164 416 218 393 q 70 479 111 438 q 7 572 30 519 q -15 687 -15 626 q 34 850 -15 779 q 159 958 83 922 l 159 1057 l 426 1057 l 426 944 q 534 834 494 905 q 573 670 573 762 l 309 670 q 300 704 309 690 q 279 719 291 719 q 257 709 266 719 q 248 687 248 700 q 256 669 248 677 q 273 658 263 661 l 279 658 m 268 625 q 229 646 244 629 q 215 687 215 663 q 233 734 215 715 q 279 752 251 752 q 319 738 302 752 q 341 704 336 725 l 540 704 q 493 832 533 772 q 393 923 454 891 l 393 1023 l 193 1023 l 193 936 q 122 895 154 920 q 67 837 90 869 q 31 767 44 805 q 18 687 18 729 q 38 586 18 633 q 95 503 59 538 q 177 447 130 468 q 279 426 225 426 l 288 426 q 327 405 312 423 q 343 363 343 387 q 325 318 343 336 q 279 300 306 300 q 238 313 255 300 q 216 347 222 327 l 18 347 q 74 209 26 273 q 193 116 122 144 l 193 16 l 393 16 l 393 129 q 500 227 459 165 q 540 363 540 288 q 519 465 540 418 q 463 547 498 512 q 380 604 427 583 q 279 625 333 625 l 268 625 "},"\\":{"x_min":-94.453125,"x_max":504.203125,"ha":329,"o":"m 173 1052 l 504 -16 l 236 -16 l -94 1052 l 173 1052 m 259 16 l 459 16 l 150 1019 l -50 1019 l 259 16 "},"’":{"x_min":-18.0625,"x_max":158.34375,"ha":203,"o":"m 16 1016 q 23 939 19 975 q 30 859 27 904 l 109 859 q 116 936 112 900 q 123 1016 120 973 l 16 1016 m 158 1050 l 141 826 l -1 826 l -18 1050 l 158 1050 "},"~":{"x_min":0,"x_max":0,"ha":1157},"-":{"x_min":-16.671875,"x_max":734.78125,"ha":814,"o":"m 701 634 l 16 634 l 16 434 l 701 434 l 701 634 m -16 401 l -16 668 l 734 668 l 734 401 l -16 401 "},"Q":{"x_min":-13.890625,"x_max":895.90625,"ha":924,"o":"m 754 -16 l 584 -16 l 527 -16 q 466 -17 500 -16 q 388 -18 431 -18 q 289 -9 331 -18 q 213 15 247 -1 q 150 55 179 31 q 91 111 120 79 q 9 248 33 172 q -13 411 -13 325 l -13 652 q 15 797 -8 729 q 91 920 38 866 q 227 1016 150 983 q 390 1050 304 1050 q 550 1016 473 1050 q 687 920 626 983 q 762 797 738 866 q 793 654 786 729 l 793 622 l 793 494 l 793 425 l 793 394 q 786 320 791 355 q 765 254 780 286 q 832 257 797 255 q 895 261 868 259 l 895 -13 l 754 -16 m 862 19 l 862 227 q 782 222 827 225 q 708 219 737 220 q 749 311 740 272 q 759 394 758 350 l 759 425 l 759 494 l 759 622 l 759 652 l 759 651 q 731 785 752 722 q 662 898 709 848 q 538 986 608 955 q 388 1016 468 1016 q 240 986 311 1016 q 116 898 170 957 q 46 785 68 848 q 19 651 25 722 l 19 652 l 19 411 q 41 261 19 331 q 116 133 63 190 q 169 85 141 106 q 229 47 197 63 q 301 23 262 31 q 390 15 340 15 q 466 15 431 15 q 527 16 500 16 l 584 16 l 754 16 l 862 19 "},"M":{"x_min":-16.671875,"x_max":916.734375,"ha":1000,"o":"m 916 -16 l 636 -16 l 636 262 l 537 -16 l 365 -16 l 263 275 l 263 -16 l -16 -16 l -16 1050 l 248 1050 l 451 483 q 553 767 501 626 q 655 1050 605 908 l 916 1050 l 916 -16 m 677 1016 l 451 384 l 226 1016 l 16 1016 l 16 16 l 230 16 l 230 377 l 261 383 l 387 16 l 515 16 l 638 372 l 669 366 l 669 16 l 883 16 l 883 1016 l 677 1016 "},"C":{"x_min":-18.0625,"x_max":772.28125,"ha":845,"o":"m 390 245 q 480 277 443 241 q 540 366 518 313 l 772 237 q 734 166 759 209 q 663 82 708 123 q 551 11 619 41 q 383 -18 483 -18 q 198 16 273 -18 q 77 109 123 51 q 8 245 30 168 q -18 405 -13 322 l -18 620 q 9 777 -16 700 q 84 914 34 854 q 210 1012 134 975 q 386 1050 286 1050 q 538 1024 473 1050 q 648 957 602 998 q 723 865 694 916 q 769 762 752 813 l 538 633 q 516 686 530 659 q 482 736 502 713 q 438 771 462 758 q 388 783 415 784 q 287 732 326 777 q 248 616 248 686 l 248 415 q 288 298 248 345 q 390 245 327 251 m 387 212 q 262 275 309 218 q 215 415 215 331 l 215 616 q 261 755 215 700 q 386 816 308 811 q 441 806 415 818 q 490 775 468 794 q 529 730 512 755 q 558 680 547 705 l 730 776 q 688 863 715 820 q 620 941 662 907 q 521 995 579 975 q 384 1016 463 1016 q 224 982 293 1016 q 109 892 155 948 q 40 765 63 836 q 15 620 16 694 l 15 408 q 44 264 22 334 q 110 138 66 194 q 221 49 154 83 q 384 15 288 15 q 529 38 469 15 q 628 93 588 61 q 691 162 668 126 q 727 225 715 198 q 643 272 682 251 q 556 319 604 293 q 491 239 533 270 q 387 212 450 208 "},"[":{"x_min":-16.671875,"x_max":483.375,"ha":490,"o":"m 16 1016 l 16 16 l 450 16 l 450 201 l 216 201 l 216 832 l 450 832 l 450 1016 l 16 1016 m 483 1050 l 483 798 l 250 798 l 250 234 l 483 234 l 483 -16 l -16 -16 l -16 1050 l 483 1050 "},"L":{"x_min":-16.671875,"x_max":526.4375,"ha":617,"o":"m 526 250 l 526 -16 l -16 -16 l -16 1050 l 250 1050 l 250 250 l 526 250 m 216 1016 l 16 1016 l 16 16 l 493 16 l 493 216 l 216 216 l 216 1016 "},"!":{"x_min":-16.671875,"x_max":254.1875,"ha":326,"o":"m 193 188 l 44 188 l 44 16 l 193 16 l 193 188 m 11 -16 l 11 222 l 226 222 l 226 -16 l 11 -16 m 16 1016 q 30 674 23 838 q 44 331 37 509 l 193 331 q 206 674 200 509 q 220 1016 213 838 l 16 1016 m 226 298 l 11 298 l -16 1050 l 254 1050 l 226 298 "}," ":{"x_min":0,"x_max":0,"ha":396},"{":{"x_min":0,"x_max":0,"ha":1157},"X":{"x_min":-26.390625,"x_max":820.90625,"ha":856,"o":"m 533 516 q 677 250 601 388 q 820 -16 752 111 l 519 -16 l 397 234 q 336 108 366 172 q 275 -16 305 44 l -26 -16 l 261 516 q 117 783 193 644 q -26 1050 41 922 l 273 1050 l 397 798 q 458 925 427 861 q 519 1050 488 988 l 820 1050 l 533 516 m 540 1016 q 505 945 523 983 q 468 869 487 908 q 431 793 450 830 q 397 723 413 757 l 252 1016 l 30 1016 q 165 766 98 890 q 300 516 233 643 l 30 16 l 252 16 l 397 309 l 540 16 l 763 16 q 628 266 695 143 q 494 516 561 390 l 763 1016 l 540 1016 "},"P":{"x_min":-16.671875,"x_max":625.046875,"ha":690,"o":"m 315 1050 q 443 1025 386 1050 q 540 954 500 1000 q 602 843 580 908 q 625 698 625 779 q 602 556 625 620 q 540 445 580 491 q 442 372 500 398 q 313 347 384 347 l 254 347 l 254 -16 l -16 -16 l -16 1050 l 313 1050 l 315 1050 m 313 1016 l 16 1016 l 16 16 l 220 16 l 220 380 l 315 380 q 429 403 377 380 q 516 468 480 426 q 572 569 552 511 q 591 698 591 627 q 572 829 591 770 q 516 930 552 888 q 429 994 480 972 q 315 1016 377 1016 l 313 1016 "},"%":{"x_min":-15.28125,"x_max":1007.03125,"ha":1051,"o":"m 677 1016 q 383 516 527 759 q 88 16 238 273 l 284 16 q 579 516 434 273 q 873 1016 723 759 l 677 1016 m 302 -16 l 31 -16 l 659 1050 l 930 1050 l 302 -16 m 319 695 q 307 754 319 726 q 275 802 295 782 q 227 835 254 823 q 169 847 200 847 q 110 835 137 847 q 62 802 83 823 q 29 754 41 782 q 18 695 18 726 q 29 636 18 663 q 62 588 41 609 q 110 556 83 568 q 169 544 137 544 q 227 556 200 544 q 275 588 254 568 q 307 636 295 609 q 319 695 319 663 m 352 695 q 338 623 352 657 q 298 565 323 590 q 240 525 273 540 q 169 511 206 511 q 97 525 130 511 q 38 565 63 540 q 0 623 13 590 q -15 695 -15 657 q 0 768 -15 734 q 38 826 13 801 q 97 866 63 851 q 169 880 130 880 q 240 866 206 880 q 298 826 273 851 q 338 768 323 801 q 352 695 352 734 m 973 356 q 961 414 973 387 q 929 462 950 441 q 880 495 908 483 q 822 506 852 506 q 763 495 790 506 q 715 462 736 483 q 682 414 694 441 q 670 356 670 387 q 682 297 670 325 q 715 250 694 270 q 763 217 736 229 q 822 205 790 205 q 880 217 852 205 q 929 250 908 229 q 961 297 950 270 q 973 356 973 325 m 1007 356 q 992 284 1007 318 q 952 226 977 251 q 894 186 927 201 q 822 172 861 172 q 750 186 783 172 q 691 226 716 201 q 652 284 666 251 q 637 356 637 318 q 652 427 637 394 q 691 486 666 461 q 750 525 716 511 q 822 540 783 540 q 894 525 861 540 q 952 486 927 511 q 992 427 977 461 q 1007 356 1007 394 "},"#":{"x_min":-18.0625,"x_max":1030.640625,"ha":1089,"o":"m 613 1016 l 595 793 l 434 793 l 452 1016 l 252 1016 l 234 793 l 63 793 q 55 693 59 740 q 45 593 51 645 l 218 593 l 208 473 l 36 473 q 27 373 31 420 q 18 273 23 326 l 193 273 l 172 16 l 372 16 l 393 273 l 554 273 l 533 16 l 733 16 l 754 273 l 948 273 q 957 373 952 326 q 966 473 961 420 l 769 473 l 779 593 l 976 593 q 984 693 980 645 q 994 793 988 740 l 795 793 l 813 1016 l 613 1016 m 850 1050 l 832 826 l 1030 826 l 1007 559 l 811 559 q 808 534 809 545 q 805 506 807 523 l 1002 506 l 979 240 l 784 240 l 763 -16 l 497 -16 l 518 240 l 423 240 l 402 -16 l 136 -16 l 156 240 l -18 240 l 5 506 l 176 506 q 179 531 177 520 q 181 559 180 543 l 9 559 l 33 826 l 204 826 l 222 1050 l 488 1050 l 470 826 l 565 826 l 583 1050 l 850 1050 m 418 593 l 579 593 l 569 473 l 408 473 l 418 593 m 444 506 l 537 506 q 540 531 538 520 q 543 559 541 543 l 450 559 l 444 506 "},"_":{"x_min":-16.671875,"x_max":734.78125,"ha":699,"o":"m 701 -16 l 16 -16 l 16 -216 l 701 -216 l 701 -16 m -16 -250 l -16 16 l 734 16 l 734 -250 l -16 -250 "},"+":{"x_min":-16.671875,"x_max":736.171875,"ha":817,"o":"m 736 400 l 493 400 l 493 156 l 226 156 l 226 400 l -16 400 l -16 666 l 226 666 l 226 908 l 493 908 l 493 666 l 736 666 l 736 400 m 459 633 l 459 875 l 259 875 l 259 633 l 16 633 l 16 433 l 259 433 l 259 190 l 459 190 l 459 433 l 702 433 l 702 633 l 459 633 "},")":{"x_min":-12.5,"x_max":425.03125,"ha":403,"o":"m 259 16 q 363 277 334 150 q 391 516 391 404 q 373 716 391 625 q 333 875 355 808 q 291 979 311 941 q 268 1016 270 1016 l 52 1016 q 93 944 68 991 q 143 831 119 897 q 186 683 168 765 q 204 506 204 601 q 170 271 204 395 q 52 16 137 147 l 259 16 m 6 9 q 134 268 98 143 q 170 506 170 394 q 142 717 170 619 q 79 890 113 815 q -12 1050 38 976 l 268 1050 q 297 1010 272 1050 q 350 900 322 970 q 402 731 379 829 q 425 516 425 633 q 393 262 425 397 q 277 -16 361 127 l 20 -16 l 6 9 "},"'":{"x_min":-18.0625,"x_max":158.34375,"ha":203,"o":"m 16 1016 q 23 939 19 975 q 30 859 27 904 l 109 859 q 116 936 112 900 q 123 1016 120 973 l 16 1016 m 158 1050 l 141 826 l -1 826 l -18 1050 l 158 1050 "},"}":{"x_min":0,"x_max":0,"ha":1157},"a":{"x_min":6.9375,"x_max":968.140625,"ha":1017,"o":"m 575 255 l 397 255 l 305 -16 l 6 -16 l 319 1050 l 655 1050 l 968 -16 l 669 -16 l 575 255 m 923 16 q 776 516 850 270 q 629 1016 702 762 l 345 1016 l 51 16 l 283 16 l 375 288 l 598 288 l 693 16 l 923 16 "},"T":{"x_min":-15.28125,"x_max":720.890625,"ha":775,"o":"m 720 783 l 486 783 l 486 -16 l 219 -16 l 219 783 l -15 783 l -15 1050 l 720 1050 l 720 783 m 18 1016 l 18 816 l 252 816 l 252 16 l 452 16 l 452 816 l 687 816 l 687 1016 l 18 1016 "},"—":{"x_min":-16.671875,"x_max":943.125,"ha":1029,"o":"m 909 634 l 16 634 l 16 434 l 909 434 l 909 634 m -16 401 l -16 668 l 943 668 l 943 401 l -16 401 "},"=":{"x_min":-16.671875,"x_max":734.78125,"ha":753,"o":"m 701 886 l 16 886 l 16 686 l 701 686 l 701 886 m -16 652 l -16 919 l 734 919 l 734 652 l -16 652 m 701 402 l 16 402 l 16 202 l 701 202 l 701 402 m -16 169 l -16 436 l 734 436 l 734 169 l -16 169 "},"N":{"x_min":-15.28125,"x_max":779.234375,"ha":839,"o":"m 779 1050 l 779 -16 l 515 -16 l 265 441 l 265 -16 l -15 -16 l -15 1050 l 250 1050 l 498 591 l 498 1050 l 779 1050 m 531 518 l 504 511 l 227 1016 l 18 1016 l 18 16 l 231 16 l 231 516 l 259 523 l 537 16 l 745 16 l 745 1016 l 531 1016 l 531 518 "},"⁄":{"x_min":-133.34375,"x_max":463.921875,"ha":329,"o":"m 220 1016 q 143 764 181 888 q 66 516 105 640 q -11 268 27 393 q -88 16 -50 144 l 109 16 q 186 268 148 144 q 263 516 225 393 q 341 764 302 640 q 419 1016 379 888 l 220 1016 m 134 -16 l -133 -16 l 195 1050 l 463 1050 l 134 -16 "},"2":{"x_min":-16.671875,"x_max":645.890625,"ha":710,"o":"m 341 250 l 643 250 l 643 -16 l -11 -16 l -11 240 l 370 680 l 369 679 q 379 713 379 690 q 376 736 379 722 l 377 733 q 354 773 370 755 q 313 791 337 791 q 277 782 291 791 q 253 759 262 773 q 240 727 244 744 q 237 697 237 711 l -16 697 q 8 834 -16 769 q 77 946 33 898 q 180 1022 120 994 q 309 1050 240 1050 q 416 1032 365 1050 q 509 982 468 1013 q 582 907 551 951 q 630 813 613 863 q 642 762 638 787 q 645 713 645 737 q 618 587 645 647 q 548 480 590 527 l 341 250 m 523 502 q 588 599 565 547 q 612 713 612 651 q 600 802 612 761 q 556 888 584 848 q 491 956 529 927 q 406 1000 452 984 q 309 1016 361 1016 q 197 994 250 1016 q 106 933 145 972 q 43 842 66 894 q 16 730 19 790 l 204 730 q 212 763 205 747 q 232 794 219 780 q 266 816 245 808 q 313 825 286 825 q 375 797 350 825 q 411 737 400 769 q 411 729 411 734 q 412 713 412 723 q 397 661 412 682 l 22 226 l 22 16 l 609 16 l 609 216 l 268 216 l 523 502 "},"j":{"x_min":-16.671875,"x_max":657,"ha":736,"o":"m 657 315 q 629 185 655 245 q 556 79 602 125 q 450 9 511 34 q 319 -16 388 -16 q 188 9 250 -16 q 81 81 127 36 q 9 189 36 127 q -16 320 -16 251 l -16 440 l 254 440 l 254 334 q 272 284 254 305 q 319 263 291 263 q 366 284 347 263 q 386 334 386 305 l 386 1050 l 657 1050 l 657 315 m 419 1016 l 419 334 q 391 260 419 290 q 319 230 362 230 q 248 260 276 230 q 220 334 220 290 l 220 406 l 16 406 l 16 320 q 40 202 16 258 q 105 106 63 147 q 202 40 147 65 q 319 16 256 16 q 436 40 381 16 q 532 104 491 63 q 597 198 573 144 q 623 315 622 252 l 623 1016 l 419 1016 "},"Z":{"x_min":-16.671875,"x_max":676.4375,"ha":765,"o":"m 676 795 l 327 250 l 676 250 l 676 -16 l -16 -16 l -16 238 l 343 783 l -16 783 l -16 1050 l 676 1050 l 676 795 m 16 1016 l 16 816 l 405 816 l 16 227 l 16 16 l 643 16 l 643 216 l 269 216 l 643 804 l 643 1016 l 16 1016 "},"u":{"x_min":-15.28125,"x_max":763.953125,"ha":850,"o":"m 763 412 q 738 238 763 318 q 664 101 713 158 q 542 13 615 44 q 373 -16 469 -18 q 193 16 266 -18 q 72 111 119 51 q 5 249 26 170 q -15 412 -15 327 l -15 1051 l 258 1051 l 258 430 q 265 366 258 395 q 286 313 272 336 q 322 277 300 290 q 375 263 344 263 q 427 277 405 263 q 462 313 448 290 q 483 366 476 336 q 490 430 490 395 l 490 1051 l 763 1051 l 763 412 m 523 1018 l 523 430 q 514 352 523 388 q 487 288 505 315 q 441 245 469 261 q 375 230 413 230 q 307 245 336 230 q 261 288 279 261 q 234 352 243 315 q 225 430 225 388 l 225 1018 l 18 1018 l 18 412 q 37 261 18 333 q 99 134 56 188 q 209 47 141 79 q 375 16 277 15 q 528 44 462 15 q 639 126 594 73 q 707 252 684 179 q 730 412 730 325 l 730 1018 l 523 1018 "},"1":{"x_min":-84.734375,"x_max":390.3125,"ha":456,"o":"m 390 1050 l 390 -16 l 123 -16 l 123 654 q 113 641 118 647 q 105 630 108 636 l -84 820 l 133 1050 l 390 1050 m -40 820 l 100 680 l 156 755 l 156 16 l 356 16 l 356 1016 l 147 1016 l -40 820 "},"k":{"x_min":-16.671875,"x_max":723.671875,"ha":779,"o":"m 326 515 q 524 248 422 387 q 722 -16 626 109 l 391 -16 l 250 173 l 250 -16 l -16 -16 l -16 1050 l 250 1050 l 250 847 l 393 1050 l 723 1050 l 326 515 m 409 1016 l 216 740 l 216 1016 l 16 1016 l 16 16 l 216 16 l 216 275 l 408 16 l 654 16 q 469 266 562 140 q 284 515 376 393 l 657 1016 l 409 1016 "},"<":{"x_min":-20.828125,"x_max":727.84375,"ha":708,"o":"m 425 1016 l 20 526 q 222 271 125 395 q 423 16 319 147 l 658 16 l 254 531 l 655 1016 l 425 1016 m 295 529 l 725 -16 l 409 -16 l -20 529 l 408 1050 l 727 1050 l 295 529 "},"t":{"x_min":-15.28125,"x_max":720.890625,"ha":786,"o":"m 720 783 l 486 783 l 486 -16 l 219 -16 l 219 783 l -15 783 l -15 1050 l 720 1050 l 720 783 m 18 1016 l 18 816 l 252 816 l 252 16 l 452 16 l 452 816 l 687 816 l 687 1016 l 18 1016 "},"W":{"x_min":-19.453125,"x_max":1219.546875,"ha":1293,"o":"m 1219 1050 l 916 -16 l 680 -16 l 598 359 q 552 170 575 266 q 505 -16 529 73 l 254 -16 l -19 1050 l 291 1050 l 387 643 l 481 1050 l 705 1050 l 800 643 l 894 1050 l 1219 1050 m 815 558 l 784 558 l 677 1016 l 509 1016 l 402 558 l 372 558 l 263 1016 l 25 1016 l 281 16 l 477 16 l 584 447 l 615 445 l 708 16 l 890 16 l 1175 1016 l 922 1016 l 815 558 "},"v":{"x_min":-15.28125,"x_max":887.578125,"ha":950,"o":"m 887 1050 l 544 -16 l 312 -16 l -15 1050 l 293 1050 l 437 619 q 509 836 472 726 q 579 1050 545 945 l 887 1050 m 437 513 l 270 1016 l 29 1016 q 183 516 106 762 q 337 16 259 270 l 522 16 q 602 268 562 144 q 682 516 643 393 q 762 764 722 640 q 843 1016 802 888 l 602 1016 l 437 513 "},">":{"x_min":-41.671875,"x_max":707,"ha":708,"o":"m 261 16 l 665 506 q 463 761 561 637 q 262 1016 366 886 l 27 1016 l 431 501 l 30 16 l 261 16 m 390 504 l -38 1050 l 276 1050 l 707 504 l 277 -16 l -41 -16 l 390 504 "},"s":{"x_min":-20.828125,"x_max":707,"ha":770,"o":"m 707 238 q 676 139 702 186 q 602 58 650 93 q 488 3 555 23 q 337 -16 420 -16 q 213 1 272 -16 q 109 53 155 19 q 29 136 62 87 q -20 247 -4 186 l 216 345 l 230 315 q 238 302 229 315 q 263 275 247 290 q 301 250 280 261 q 344 241 322 238 q 363 246 354 243 q 381 257 373 250 q 395 275 390 265 q 398 301 400 286 q 381 337 397 319 q 337 375 365 355 q 284 409 309 393 q 236 440 259 425 q 139 502 183 472 q 63 566 95 531 q 14 646 31 601 q -2 755 -2 691 q 26 882 -2 827 q 104 972 55 936 q 215 1029 152 1009 q 344 1050 277 1048 q 486 1026 425 1050 q 588 965 547 1002 q 654 880 630 927 q 684 787 677 833 l 450 694 q 437 730 445 711 q 416 767 429 750 q 386 795 404 784 q 345 807 368 807 q 306 793 323 807 q 288 754 288 780 q 309 716 288 734 q 370 668 329 698 l 369 668 q 495 594 434 632 q 603 509 556 556 q 678 402 650 462 q 707 259 707 341 l 707 240 l 707 238 m 673 259 q 646 391 673 334 q 573 491 619 447 q 468 572 527 536 q 347 643 409 608 q 277 699 300 677 q 255 754 255 720 q 283 818 255 797 q 345 840 311 840 q 395 830 373 840 q 431 806 416 820 q 457 773 447 791 q 473 738 468 755 q 559 773 518 757 q 647 808 601 790 q 617 883 638 845 q 559 950 595 920 q 468 998 522 980 q 344 1016 415 1016 q 227 998 283 1015 q 127 947 170 980 q 56 867 83 915 q 30 755 30 819 q 47 658 30 698 q 93 585 63 618 q 163 525 123 552 q 252 468 204 497 l 356 402 q 411 355 393 379 q 431 304 430 331 q 425 263 433 280 q 406 234 418 245 q 379 216 394 223 q 350 208 363 209 q 300 215 325 205 q 256 241 276 226 q 222 275 236 256 q 202 308 208 293 l 20 227 q 137 72 52 127 q 337 16 222 16 q 472 34 412 16 q 576 83 533 52 q 644 154 619 113 q 673 241 669 195 l 673 259 "},"B":{"x_min":-16.671875,"x_max":627.828125,"ha":725,"o":"m 555 786 q 523 642 555 702 q 450 551 491 581 q 532 507 498 537 q 587 440 566 477 q 618 361 608 402 q 627 283 627 319 q 609 168 627 223 q 554 72 591 113 q 463 6 518 30 q 337 -18 409 -18 l -16 -18 l -16 1048 l 247 1048 q 384 1026 326 1047 q 480 970 443 1005 q 536 887 518 934 q 555 786 555 840 m 383 559 q 430 576 405 559 q 475 622 455 593 q 509 694 495 652 q 522 786 522 736 q 505 874 522 833 q 455 946 488 915 q 370 995 422 977 q 247 1015 318 1013 l 16 1015 l 16 15 l 337 15 q 449 36 401 15 q 529 95 497 58 q 578 180 562 131 q 594 283 594 229 q 583 363 594 320 q 547 441 572 405 q 481 502 522 477 q 383 526 441 526 l 383 559 "},"?":{"x_min":-15.28125,"x_max":654.21875,"ha":701,"o":"m 331 1048 q 460 1026 401 1048 q 562 963 519 1004 q 629 865 605 922 q 654 738 654 808 q 643 644 654 682 q 613 579 632 607 q 569 533 594 552 q 518 495 544 513 q 454 447 486 475 q 398 381 423 420 q 393 362 395 375 q 390 336 391 350 q 388 302 388 320 l 163 302 l 163 361 q 175 454 163 413 q 204 527 186 495 q 247 581 223 558 q 300 623 272 605 q 369 677 350 655 q 388 720 388 700 q 367 766 388 750 q 315 783 345 783 q 257 756 280 783 q 234 690 234 729 l -15 750 q 11 879 -15 823 q 86 972 38 934 q 196 1029 133 1009 q 330 1048 259 1048 l 331 1048 m 330 1015 q 214 998 269 1015 q 118 952 159 982 q 49 877 76 922 q 18 777 22 833 l 204 732 q 242 792 212 768 q 315 816 272 816 q 390 791 358 816 q 422 720 422 765 q 400 663 422 691 q 316 595 377 634 q 231 511 265 563 q 197 361 197 458 l 197 336 l 355 336 q 360 368 356 350 q 370 398 363 387 q 433 473 400 445 q 498 523 466 501 q 544 557 522 540 q 583 598 566 575 q 610 656 600 622 q 620 738 620 690 q 599 852 620 801 q 538 938 577 902 q 447 995 500 975 q 331 1015 394 1015 l 330 1015 m 355 175 l 198 175 l 198 16 l 355 16 l 355 175 m 388 -16 l 165 -16 l 165 208 l 388 208 l 388 -16 "},"H":{"x_min":-2.78125,"x_max":773.671875,"ha":857,"o":"m 773 1050 l 773 -16 l 506 -16 l 506 383 l 263 383 l 263 -16 l -2 -16 l -2 1050 l 263 1050 l 263 650 l 506 650 l 506 1050 l 773 1050 m 540 616 l 230 616 l 230 1016 l 30 1016 l 30 16 l 230 16 l 230 416 l 540 416 l 540 16 l 740 16 l 740 1016 l 540 1016 l 540 616 "},"c":{"x_min":-18.0625,"x_max":772.28125,"ha":845,"o":"m 390 245 q 480 277 443 241 q 540 366 518 313 l 772 237 q 734 166 759 209 q 663 82 708 123 q 551 11 619 41 q 383 -18 483 -18 q 198 16 273 -18 q 77 109 123 51 q 8 245 30 168 q -18 405 -13 322 l -18 620 q 9 777 -16 700 q 84 914 34 854 q 210 1012 134 975 q 386 1050 286 1050 q 538 1024 473 1050 q 648 957 602 998 q 723 865 694 916 q 769 762 752 813 l 538 633 q 516 686 530 659 q 482 736 502 713 q 438 771 462 758 q 388 783 415 784 q 287 732 326 777 q 248 616 248 686 l 248 415 q 288 298 248 345 q 390 245 327 251 m 387 212 q 262 275 309 218 q 215 415 215 331 l 215 616 q 261 755 215 700 q 386 816 308 811 q 441 806 415 818 q 490 775 468 794 q 529 730 512 755 q 558 680 547 705 l 730 776 q 688 863 715 820 q 620 941 662 907 q 521 995 579 975 q 384 1016 463 1016 q 224 982 293 1016 q 109 892 155 948 q 40 765 63 836 q 15 620 16 694 l 15 408 q 44 264 22 334 q 110 138 66 194 q 221 49 154 83 q 384 15 288 15 q 529 38 469 15 q 628 93 588 61 q 691 162 668 126 q 727 225 715 198 q 643 272 682 251 q 556 319 604 293 q 491 239 533 270 q 387 212 450 208 "},"&":{"x_min":-16.671875,"x_max":907.015625,"ha":974,"o":"m 770 266 l 898 137 l 733 -27 l 608 97 q 490 15 559 48 q 345 -16 420 -16 q 204 11 270 -16 q 89 88 138 40 q 11 203 40 137 q -16 344 -16 269 q 25 508 -16 430 q 129 634 66 586 q 98 701 109 665 q 87 777 87 737 q 107 878 87 832 q 163 959 127 925 q 245 1014 198 994 q 345 1034 291 1034 q 445 1014 398 1034 q 527 959 493 994 q 582 878 562 925 q 602 777 602 832 q 569 649 602 707 q 479 558 536 591 q 544 493 512 523 q 611 427 576 463 l 745 561 l 907 398 l 770 266 m 745 516 l 608 380 l 425 568 q 529 655 490 600 q 569 777 569 711 q 551 864 569 823 q 503 936 533 905 q 432 984 473 966 q 345 1001 391 1001 q 259 984 300 1001 q 187 936 218 966 q 138 864 156 905 q 120 777 120 823 q 135 700 120 738 q 176 626 150 662 q 60 503 104 577 q 16 344 16 429 q 42 216 16 276 q 113 112 68 156 q 218 42 158 68 q 345 16 277 16 q 487 51 420 16 q 605 144 554 86 l 733 16 l 854 137 l 726 266 l 859 398 l 745 516 "},"I":{"x_min":-2.78125,"x_max":263.90625,"ha":344,"o":"m 30 1016 l 30 16 l 230 16 l 230 1016 l 30 1016 m 263 -16 l -2 -16 l -2 1050 l 263 1050 l 263 -16 "},"•":{"x_min":-16.671875,"x_max":206.96875,"ha":318,"o":"m 173 612 l 16 612 l 16 454 l 173 454 l 173 612 m -16 420 l -16 645 l 206 645 l 206 420 l -16 420 "},"G":{"x_min":-13.890625,"x_max":765.34375,"ha":878,"o":"m 765 186 q 698 109 737 145 q 611 43 659 72 q 507 -1 563 15 q 388 -18 451 -18 q 218 13 293 -18 q 93 102 144 45 q 15 236 43 158 q -13 406 -11 315 l -13 620 q 11 784 -13 707 q 88 921 37 862 q 215 1015 140 980 q 390 1050 290 1050 q 531 1024 475 1047 q 626 969 588 1001 q 686 902 663 937 q 722 838 708 866 q 732 820 725 832 q 747 797 738 809 l 525 650 q 508 687 518 666 q 483 726 498 708 q 445 757 468 744 q 391 769 423 769 q 293 727 329 769 q 256 616 256 686 l 256 415 q 297 301 256 345 q 401 255 338 256 q 469 268 443 254 q 508 306 495 283 l 508 336 l 398 336 l 398 569 l 765 569 l 765 186 m 431 536 l 431 369 l 541 369 l 541 295 q 491 241 525 262 q 401 222 456 220 q 331 236 363 222 q 274 277 298 251 q 236 338 250 302 q 223 415 223 373 l 223 616 q 269 751 223 700 q 391 802 315 802 q 451 793 426 802 q 493 768 476 783 q 522 734 511 752 q 540 700 533 716 q 619 752 583 727 q 700 807 655 777 l 691 825 q 656 880 679 850 q 599 939 634 911 q 512 989 563 968 q 388 1016 461 1011 q 231 982 300 1015 q 115 895 162 950 q 43 770 68 841 q 19 620 19 700 l 19 406 q 53 258 26 329 q 127 133 80 187 q 240 47 175 79 q 390 15 305 15 q 498 30 447 15 q 593 70 550 45 q 671 128 636 95 q 732 197 707 161 l 732 536 l 431 536 "},"(":{"x_min":-4.171875,"x_max":433.375,"ha":414,"o":"m 161 1016 q 57 756 86 883 q 29 516 29 629 q 47 316 29 408 q 87 158 65 225 q 129 54 109 91 q 152 16 150 16 l 368 16 q 327 88 352 41 q 277 202 301 136 q 234 350 252 268 q 216 526 216 431 q 248 761 216 638 q 368 1016 280 884 l 161 1016 m 413 1023 q 285 764 320 890 q 250 526 250 638 q 278 315 250 413 q 341 141 306 216 q 433 -16 381 55 l 152 -16 q 123 22 148 -16 q 70 133 98 62 q 18 302 41 204 q -4 516 -4 400 q 27 770 -4 636 q 143 1050 59 905 l 400 1050 l 413 1023 "},"`":{"x_min":-18.0625,"x_max":247.234375,"ha":329,"o":"m 247 1050 l 247 794 l 168 654 l -13 654 l 61 783 l -18 783 l -18 1050 l 247 1050 m 15 816 l 118 816 l 43 687 l 145 687 q 180 746 163 719 q 213 805 197 773 l 213 1016 l 15 1016 l 15 816 "},"U":{"x_min":-15.28125,"x_max":763.953125,"ha":853,"o":"m 763 412 q 738 238 763 318 q 664 101 713 158 q 542 13 615 44 q 373 -16 469 -18 q 193 16 266 -18 q 72 111 119 51 q 5 249 26 170 q -15 412 -15 327 l -15 1051 l 258 1051 l 258 430 q 265 366 258 395 q 286 313 272 336 q 322 277 300 290 q 375 263 344 263 q 427 277 405 263 q 462 313 448 290 q 483 366 476 336 q 490 430 490 395 l 490 1051 l 763 1051 l 763 412 m 523 1018 l 523 430 q 514 352 523 388 q 487 288 505 315 q 441 245 469 261 q 375 230 413 230 q 307 245 336 230 q 261 288 279 261 q 234 352 243 315 q 225 430 225 388 l 225 1018 l 18 1018 l 18 412 q 37 261 18 333 q 99 134 56 188 q 209 47 141 79 q 375 16 277 15 q 528 44 462 15 q 639 126 594 73 q 707 252 684 179 q 730 412 730 325 l 730 1018 l 523 1018 "},"F":{"x_min":-15.28125,"x_max":651.4375,"ha":711,"o":"m 251 783 l 251 650 l 545 650 l 545 383 l 251 383 l 251 -16 l -15 -16 l -15 1050 l 651 1050 l 651 783 l 251 783 m 618 1016 l 18 1016 l 18 16 l 218 16 l 218 416 l 512 416 l 512 616 l 218 616 l 218 816 l 618 816 l 618 1016 "},"r":{"x_min":-16.671875,"x_max":670.890625,"ha":725,"o":"m 363 -16 l 250 255 l 250 -16 l -16 -16 l -16 1050 l 315 1050 q 470 1021 408 1050 q 570 945 533 993 q 624 834 608 897 q 640 701 640 770 q 620 586 640 637 q 572 497 601 534 q 513 435 544 459 q 456 401 481 411 q 564 192 508 301 q 670 -16 620 83 l 363 -16 m 405 429 q 457 447 423 429 q 525 500 491 465 q 582 585 558 534 q 607 701 607 636 q 593 822 607 765 q 545 922 579 879 q 454 991 511 965 q 313 1016 398 1016 l 16 1016 l 16 16 l 216 16 q 218 180 216 97 q 219 343 219 263 l 248 348 l 387 16 l 615 16 l 405 429 "},":":{"x_min":-16.671875,"x_max":205.578125,"ha":364,"o":"m 205 884 l 205 659 l -16 659 l -16 884 l 205 884 m 16 851 l 16 693 l 172 693 l 172 851 l 16 851 m 205 431 l 205 206 l -16 206 l -16 431 l 205 431 m 16 398 l 16 240 l 172 240 l 172 398 l 16 398 "},"x":{"x_min":-26.390625,"x_max":820.90625,"ha":856,"o":"m 533 516 q 677 250 601 388 q 820 -16 752 111 l 519 -16 l 397 234 q 336 108 366 172 q 275 -16 305 44 l -26 -16 l 261 516 q 117 783 193 644 q -26 1050 41 922 l 273 1050 l 397 798 q 458 925 427 861 q 519 1050 488 988 l 820 1050 l 533 516 m 540 1016 q 505 945 523 983 q 468 869 487 908 q 431 793 450 830 q 397 723 413 757 l 252 1016 l 30 1016 q 165 766 98 890 q 300 516 233 643 l 30 16 l 252 16 l 397 309 l 540 16 l 763 16 q 628 266 695 143 q 494 516 561 390 l 763 1016 l 540 1016 "},"*":{"x_min":-45.84375,"x_max":545.875,"ha":607,"o":"m 419 802 l 506 715 l 379 583 l 250 712 l 120 581 l -11 709 l 81 802 l -45 837 l 1 1018 l 155 977 l 155 1116 l 341 1116 l 341 976 l 498 1018 l 545 837 l 419 802 m 473 976 l 308 932 l 308 1083 l 188 1083 l 188 933 l 26 976 l -4 861 l 145 822 l 36 712 q 77 670 56 691 q 120 626 97 648 l 250 757 l 376 630 q 418 671 397 651 q 462 715 440 691 l 355 822 l 504 862 l 473 976 "},"V":{"x_min":-15.28125,"x_max":887.578125,"ha":939,"o":"m 887 1050 l 544 -16 l 312 -16 l -15 1050 l 293 1050 l 437 619 q 509 836 472 726 q 579 1050 545 945 l 887 1050 m 437 513 l 270 1016 l 29 1016 q 183 516 106 762 q 337 16 259 270 l 522 16 q 602 268 562 144 q 682 516 643 393 q 762 764 722 640 q 843 1016 802 888 l 602 1016 l 437 513 "}," ":{"x_min":0,"x_max":0,"ha":396},"h":{"x_min":-2.78125,"x_max":773.671875,"ha":857,"o":"m 773 1050 l 773 -16 l 506 -16 l 506 383 l 263 383 l 263 -16 l -2 -16 l -2 1050 l 263 1050 l 263 650 l 506 650 l 506 1050 l 773 1050 m 540 616 l 230 616 l 230 1016 l 30 1016 l 30 16 l 230 16 l 230 416 l 540 416 l 540 16 l 740 16 l 740 1016 l 540 1016 l 540 616 "},"0":{"x_min":-16.671875,"x_max":654.21875,"ha":704,"o":"m 652 302 q 628 175 652 233 q 560 73 604 116 q 455 6 516 30 q 319 -16 394 -16 q 184 7 245 -16 q 77 73 122 31 q 8 170 33 115 q -16 288 -16 226 l -16 729 q 7 857 -16 798 q 75 959 31 916 q 181 1025 119 1001 q 319 1050 244 1050 q 455 1025 394 1050 q 560 958 516 1001 q 628 856 604 915 q 652 727 652 797 q 653 718 652 723 q 654 709 654 713 l 654 694 l 654 337 l 654 322 q 653 313 654 318 q 652 305 652 309 l 652 304 l 652 302 m 619 305 q 620 313 619 309 q 620 322 620 318 l 620 337 l 620 694 l 620 709 q 620 718 620 713 q 619 729 619 723 q 597 843 619 791 q 536 934 576 895 q 441 995 497 973 q 319 1016 386 1016 q 195 995 251 1016 q 99 934 138 973 q 38 843 59 895 q 16 729 16 791 l 16 288 q 38 184 16 233 q 101 97 61 134 q 197 38 141 59 q 319 16 252 16 q 441 37 386 16 q 535 95 495 58 q 597 185 575 133 q 620 298 619 237 q 629 288 622 291 q 636 287 632 287 l 619 305 "},".":{"x_min":-16.671875,"x_max":206.96875,"ha":318,"o":"m 173 175 l 16 175 l 16 16 l 173 16 l 173 175 m -16 -16 l -16 208 l 206 208 l 206 -16 l -16 -16 "},"”":{"x_min":-18.0625,"x_max":325.03125,"ha":326,"o":"m 16 1016 q 23 939 19 975 q 30 859 27 904 l 109 859 q 116 936 112 900 q 123 1016 120 973 l 16 1016 m 158 1050 l 141 826 l -1 826 l -18 1050 l 158 1050 m 183 1016 q 190 939 186 975 q 197 859 194 904 l 276 859 q 283 936 279 900 q 290 1016 287 973 l 183 1016 m 325 1050 l 308 826 l 165 826 l 148 1050 l 325 1050 "},"@":{"x_min":-18.0625,"x_max":861.1875,"ha":932,"o":"m 413 245 q 472 250 447 245 q 519 262 497 254 q 564 284 541 270 q 615 318 587 298 l 773 119 q 705 68 747 93 q 615 25 663 44 q 513 -6 566 5 q 412 -18 461 -18 q 223 16 302 -18 q 92 109 144 51 q 13 245 40 168 q -18 405 -13 322 l -18 620 q 13 777 -16 700 q 98 914 43 854 q 234 1012 154 975 q 413 1050 313 1050 q 602 1012 519 1050 q 742 913 684 975 q 830 772 800 851 q 861 608 861 693 q 858 550 861 583 q 849 483 855 516 q 832 420 843 450 q 805 369 822 390 q 749 324 777 337 q 697 311 720 311 q 634 327 661 311 q 595 354 607 344 l 593 355 l 600 354 q 602 352 604 354 q 579 331 594 344 q 543 305 565 318 q 492 284 522 293 q 423 275 462 275 q 347 293 379 275 q 293 341 315 312 q 260 406 270 370 q 250 475 250 441 l 250 555 q 266 645 250 607 q 307 709 283 684 q 359 747 331 734 q 411 759 387 759 q 484 752 454 759 q 535 732 513 744 q 573 701 556 719 q 607 662 590 683 l 618 648 l 590 634 q 538 742 581 701 q 413 783 494 783 q 350 763 381 783 q 292 714 318 744 q 250 647 266 684 q 234 575 234 609 l 234 443 q 250 372 234 408 q 292 309 266 337 q 350 263 318 281 q 413 245 381 245 m 413 212 q 338 233 376 212 q 269 286 300 254 q 220 360 238 319 q 201 443 201 401 l 201 575 q 220 658 201 615 q 269 736 238 701 q 338 794 300 772 q 413 816 376 816 q 562 754 509 816 q 629 593 615 693 l 581 643 q 552 677 566 662 q 520 704 538 693 q 476 720 502 715 q 411 726 450 726 q 370 716 393 726 q 329 684 348 705 q 296 631 309 663 q 283 555 283 598 l 283 475 q 291 417 283 447 q 318 363 300 387 q 361 323 336 338 q 423 308 387 308 q 484 316 458 308 q 529 334 511 323 q 561 356 548 345 q 580 375 573 368 q 590 383 586 380 q 602 386 594 386 l 608 383 q 616 377 613 380 q 649 356 627 369 q 697 344 670 344 q 737 354 716 344 q 780 391 758 363 q 804 435 794 408 q 818 493 813 462 q 825 554 823 523 q 827 608 827 584 q 799 759 827 686 q 717 890 770 833 q 586 982 663 947 q 412 1016 509 1016 q 247 982 320 1016 q 123 892 175 948 q 44 765 72 836 q 15 620 16 694 l 15 408 q 48 263 22 334 q 123 137 75 193 q 244 48 172 81 q 413 15 316 15 q 503 24 456 15 q 592 47 550 33 q 671 81 634 62 q 732 122 708 101 q 670 196 700 162 q 609 272 641 230 q 563 244 584 255 q 521 225 543 233 q 474 215 500 218 q 413 212 448 212 "},"f":{"x_min":-15.28125,"x_max":651.4375,"ha":718,"o":"m 251 783 l 251 650 l 545 650 l 545 383 l 251 383 l 251 -16 l -15 -16 l -15 1050 l 651 1050 l 651 783 l 251 783 m 618 1016 l 18 1016 l 18 16 l 218 16 l 218 416 l 512 416 l 512 616 l 218 616 l 218 816 l 618 816 l 618 1016 "},";":{"x_min":-16.671875,"x_max":208.34375,"ha":340,"o":"m 205 884 l 205 659 l -16 659 l -16 884 l 205 884 m 16 851 l 16 693 l 172 693 l 172 851 l 16 851 m 208 433 l 208 219 l 129 79 l 9 79 l 41 208 l -15 208 l -15 433 l 208 433 m 18 400 l 18 241 l 83 241 l 51 112 l 106 112 q 141 171 125 144 q 175 230 158 198 l 175 400 l 18 400 "},"“":{"x_min":-18.0625,"x_max":325.03125,"ha":326,"o":"m 16 1016 q 23 939 19 975 q 30 859 27 904 l 109 859 q 116 936 112 900 q 123 1016 120 973 l 16 1016 m 158 1050 l 141 826 l -1 826 l -18 1050 l 158 1050 m 183 1016 q 190 939 186 975 q 197 859 194 904 l 276 859 q 283 936 279 900 q 290 1016 287 973 l 183 1016 m 325 1050 l 308 826 l 165 826 l 148 1050 l 325 1050 "},"i":{"x_min":-2.78125,"x_max":263.90625,"ha":347,"o":"m 30 1016 l 30 16 l 230 16 l 230 1016 l 30 1016 m 263 -16 l -2 -16 l -2 1050 l 263 1050 l 263 -16 "},"6":{"x_min":-16.671875,"x_max":643.109375,"ha":710,"o":"m 643 318 q 622 187 643 248 q 560 80 601 126 q 459 8 519 34 q 320 -18 400 -18 q 179 5 241 -18 q 72 70 116 29 q 6 169 29 112 q -16 294 -16 226 l -16 719 q 6 843 -16 783 q 74 950 30 902 q 180 1025 118 997 q 320 1054 243 1054 q 449 1028 390 1054 q 551 957 508 1002 q 618 850 594 912 q 643 713 643 787 l 390 713 q 369 775 390 750 q 320 801 348 801 q 270 780 290 801 q 250 730 251 759 l 250 623 q 293 645 269 637 q 334 654 318 654 q 467 630 409 654 q 563 563 525 607 q 622 457 602 519 q 643 319 643 395 l 643 318 m 609 319 q 539 539 609 458 q 334 620 469 620 q 311 616 325 620 q 284 606 297 612 q 260 591 270 600 q 247 575 250 583 l 216 579 l 218 730 q 247 804 218 775 q 320 834 276 834 q 387 809 359 834 q 422 747 415 784 l 609 747 q 584 857 607 807 q 522 943 561 907 q 431 1000 483 979 q 320 1020 380 1020 q 193 995 250 1020 q 97 927 137 969 q 37 830 58 884 q 16 719 16 776 l 16 294 q 37 182 16 233 q 97 94 58 131 q 193 36 136 56 q 320 15 250 15 q 445 38 391 15 q 535 104 498 62 q 591 200 572 145 q 609 318 609 255 l 609 319 "},"A":{"x_min":6.9375,"x_max":968.140625,"ha":1017,"o":"m 575 255 l 397 255 l 305 -16 l 6 -16 l 319 1050 l 655 1050 l 968 -16 l 669 -16 l 575 255 m 693 16 l 923 16 q 776 516 850 270 q 629 1016 702 762 l 345 1016 l 51 16 l 283 16 l 375 288 l 598 288 l 693 16 "},"‘":{"x_min":-18.0625,"x_max":158.34375,"ha":203,"o":"m 16 1016 q 23 939 19 975 q 30 859 27 904 l 109 859 q 116 936 112 900 q 123 1016 120 973 l 16 1016 m 158 1050 l 141 826 l -1 826 l -18 1050 l 158 1050 "},"n":{"x_min":-15.28125,"x_max":779.234375,"ha":839,"o":"m 779 1050 l 779 -16 l 515 -16 l 265 441 l 265 -16 l -15 -16 l -15 1050 l 250 1050 l 498 591 l 498 1050 l 779 1050 m 531 518 l 504 511 l 227 1016 l 18 1016 l 18 16 l 231 16 l 231 516 l 259 523 l 537 16 l 745 16 l 745 1016 l 531 1016 l 531 518 "},"O":{"x_min":-13.890625,"x_max":793.125,"ha":863,"o":"m 793 411 q 768 252 793 333 q 687 112 743 172 q 550 15 627 50 q 388 -18 473 -18 q 229 15 305 -18 q 91 111 152 48 q 11 248 34 172 q -13 411 -12 325 l -13 652 q 13 795 -13 723 q 91 920 40 866 q 228 1016 152 983 q 390 1050 304 1050 q 552 1016 475 1050 q 687 920 629 983 q 766 797 740 866 q 793 652 791 727 l 793 411 m 759 652 q 734 784 758 720 q 662 898 711 848 q 538 986 608 957 q 388 1016 468 1016 q 240 986 309 1016 q 116 898 170 955 q 44 783 69 848 q 19 652 19 718 l 19 411 q 42 261 20 331 q 116 133 63 190 q 240 45 170 76 q 390 15 311 15 q 539 45 469 15 q 662 134 609 76 q 737 264 715 190 q 759 411 759 338 l 759 652 "},"3":{"x_min":-16.671875,"x_max":655.609375,"ha":700,"o":"m 655 320 q 652 270 655 295 q 640 219 648 245 q 592 125 623 169 q 519 50 561 81 q 426 1 477 19 q 319 -16 375 -16 q 188 11 250 -16 q 81 87 127 38 q 9 200 36 136 q -16 337 -16 263 l 76 337 l 250 337 q 270 275 250 301 q 319 250 291 250 q 361 264 343 250 q 386 300 379 279 q 388 319 388 308 q 368 374 388 348 q 319 400 347 400 l 236 400 l 236 633 l 319 633 q 368 659 347 633 q 388 713 388 684 q 386 733 388 725 q 361 768 379 754 q 319 783 343 783 q 270 758 291 783 q 250 697 250 733 l -16 697 q 9 834 -16 769 q 81 946 36 898 q 188 1022 127 994 q 319 1050 250 1050 q 426 1032 375 1050 q 519 982 477 1013 q 592 907 561 951 q 640 813 623 863 q 652 762 648 787 q 655 713 655 737 q 638 608 655 659 q 590 516 620 556 q 638 425 620 476 q 655 320 655 375 m 622 320 q 602 423 622 373 q 545 516 581 473 q 602 611 581 561 q 622 713 622 661 q 609 802 622 761 q 566 888 594 848 q 500 956 538 927 q 416 1000 462 984 q 319 1016 370 1016 q 204 994 258 1016 q 110 933 151 972 q 44 842 69 894 q 16 730 19 790 l 218 730 q 252 791 225 766 q 319 816 280 816 q 378 795 351 816 q 416 744 405 773 q 420 729 419 737 q 422 713 422 720 q 413 672 422 693 q 391 636 405 652 q 359 609 377 619 q 319 600 340 600 l 269 600 l 269 433 l 319 433 q 359 423 340 433 q 391 397 377 413 q 413 360 405 380 q 422 319 422 340 q 420 304 422 312 q 416 288 419 295 q 378 238 405 259 q 319 216 351 216 q 252 241 280 216 q 218 304 225 266 l 76 304 l 16 304 q 44 191 19 244 q 110 100 69 138 q 204 38 151 61 q 319 16 258 16 q 416 32 370 16 q 500 77 462 48 q 566 145 538 105 q 609 230 594 184 q 622 320 622 272 "},"]":{"x_min":-29.171875,"x_max":470.875,"ha":490,"o":"m 437 16 l 437 1016 l 4 1016 l 4 832 l 237 832 l 237 201 l 4 201 l 4 16 l 437 16 m -29 -16 l -29 234 l 204 234 l 204 798 l -29 798 l -29 1050 l 470 1050 l 470 -16 l -29 -16 "},"m":{"x_min":-16.671875,"x_max":916.734375,"ha":1000,"o":"m 916 -16 l 636 -16 l 636 262 l 537 -16 l 365 -16 l 263 275 l 263 -16 l -16 -16 l -16 1050 l 248 1050 l 451 483 q 553 767 501 626 q 655 1050 605 908 l 916 1050 l 916 -16 m 677 1016 l 451 384 l 226 1016 l 16 1016 l 16 16 l 230 16 l 230 377 l 261 383 l 387 16 l 515 16 l 638 372 l 669 366 l 669 16 l 883 16 l 883 1016 l 677 1016 "},"9":{"x_min":-15.28125,"x_max":644.5,"ha":710,"o":"m -15 719 q 5 850 -15 788 q 67 957 26 911 q 168 1029 108 1002 q 306 1055 227 1055 q 448 1032 386 1055 q 554 966 511 1008 q 621 868 598 925 q 644 743 644 811 l 644 318 q 627 193 644 254 q 571 86 611 133 q 467 11 531 40 q 306 -16 402 -16 q 178 9 237 -16 q 76 79 119 34 q 9 187 33 125 q -15 323 -15 250 l 237 323 q 258 261 237 287 q 306 236 279 236 q 356 256 337 236 q 377 306 376 277 l 377 412 q 333 391 358 400 q 293 383 308 383 q 160 406 218 383 q 63 474 102 430 q 4 579 25 518 q -15 718 -15 641 l -15 719 m 18 718 q 88 497 18 579 q 293 416 158 416 q 316 420 302 416 q 343 431 330 425 q 367 445 356 437 q 380 462 377 454 l 411 458 l 409 306 q 380 232 409 262 q 306 202 351 202 q 240 227 268 202 q 205 290 212 252 l 18 290 q 43 180 20 230 q 104 93 66 130 q 195 36 143 56 q 306 16 247 16 q 451 42 393 16 q 545 110 509 68 q 595 206 580 152 q 611 318 611 261 l 611 743 q 590 854 611 802 q 530 943 569 905 q 434 1001 491 980 q 306 1022 377 1022 q 182 998 236 1022 q 92 933 129 975 q 36 836 55 891 q 18 719 18 782 l 18 718 "},"l":{"x_min":-16.671875,"x_max":526.4375,"ha":608,"o":"m 526 250 l 526 -16 l -16 -16 l -16 1050 l 250 1050 l 250 250 l 526 250 m 216 1016 l 16 1016 l 16 16 l 493 16 l 493 216 l 216 216 l 216 1016 "},"8":{"x_min":-16.671875,"x_max":655.609375,"ha":701,"o":"m 655 331 q 631 193 655 256 q 563 82 607 129 q 456 9 519 36 q 319 -16 394 -16 q 181 9 243 -16 q 75 80 119 34 q 7 190 31 126 q -16 333 -16 255 q -8 391 -16 361 q 13 452 0 422 q 44 509 27 481 q 77 558 61 537 q 21 648 45 598 q -2 757 -2 698 q 22 881 -2 826 q 89 973 47 936 q 190 1030 131 1011 q 319 1050 250 1050 q 447 1030 388 1050 q 549 973 506 1011 q 616 881 591 936 q 641 755 641 826 q 617 647 641 697 q 561 558 593 598 q 594 510 577 537 q 625 453 611 483 q 647 393 638 423 q 655 333 655 362 l 655 331 m 622 333 q 612 390 622 359 q 587 451 602 420 q 553 509 572 481 q 516 558 534 537 q 580 650 552 600 q 608 757 608 701 q 586 866 608 818 q 525 948 563 915 q 434 999 487 982 q 319 1016 381 1016 q 204 999 256 1016 q 113 948 151 982 q 52 866 75 915 q 30 755 30 818 q 58 650 30 701 q 122 558 86 600 q 85 509 104 537 q 51 451 66 481 q 26 389 36 420 q 16 331 16 358 q 38 204 16 262 q 99 104 59 145 q 194 39 138 62 q 319 16 250 16 q 443 40 387 16 q 539 106 500 63 q 600 206 579 148 q 622 331 622 263 l 622 333 "},"p":{"x_min":-16.671875,"x_max":625.046875,"ha":690,"o":"m 315 1050 q 443 1025 386 1050 q 540 954 500 1000 q 602 843 580 908 q 625 698 625 779 q 602 556 625 620 q 540 445 580 491 q 442 372 500 398 q 313 347 384 347 l 254 347 l 254 -16 l -16 -16 l -16 1050 l 313 1050 l 315 1050 m 313 1016 l 16 1016 l 16 16 l 220 16 l 220 380 l 315 380 q 429 403 377 380 q 516 468 480 426 q 572 569 552 511 q 591 698 591 627 q 572 829 591 770 q 516 930 552 888 q 429 994 480 972 q 315 1016 377 1016 l 313 1016 "},"4":{"x_min":-27.78125,"x_max":704.21875,"ha":750,"o":"m 704 244 l 579 244 l 579 -16 l 312 -16 l 312 244 l -27 244 l -27 498 l 320 1050 l 579 1050 l 579 511 l 704 511 l 704 244 m 545 477 l 545 1016 q 441 1015 491 1016 q 337 1013 391 1013 q 171 752 254 882 q 5 490 88 622 l 5 277 l 345 277 l 345 16 l 545 16 l 545 277 l 670 277 l 670 477 l 545 477 "},"R":{"x_min":-16.671875,"x_max":670.890625,"ha":725,"o":"m 363 -16 l 250 255 l 250 -16 l -16 -16 l -16 1050 l 315 1050 q 470 1021 408 1050 q 570 945 533 993 q 624 834 608 897 q 640 701 640 770 q 620 586 640 637 q 572 497 601 534 q 513 435 544 459 q 456 401 481 411 q 564 192 508 301 q 670 -16 620 83 l 363 -16 m 405 429 q 457 447 423 429 q 525 500 491 465 q 582 585 558 534 q 607 701 607 636 q 593 822 607 765 q 545 922 579 879 q 454 991 511 965 q 313 1016 398 1016 l 16 1016 l 16 16 l 216 16 q 218 180 216 97 q 219 343 219 263 l 248 348 l 387 16 l 615 16 l 405 429 "},"o":{"x_min":-13.890625,"x_max":793.125,"ha":865,"o":"m 793 411 q 768 252 793 333 q 687 112 743 172 q 550 15 627 50 q 388 -18 473 -18 q 229 15 305 -18 q 91 111 152 48 q 11 248 34 172 q -13 411 -12 325 l -13 652 q 13 795 -13 723 q 91 920 40 866 q 228 1016 152 983 q 390 1050 304 1050 q 552 1016 475 1050 q 687 920 629 983 q 766 797 740 866 q 793 652 791 727 l 793 411 m 759 652 q 734 784 758 720 q 662 898 711 848 q 538 986 608 957 q 388 1016 468 1016 q 240 986 309 1016 q 116 898 170 955 q 44 783 69 848 q 19 652 19 718 l 19 411 q 42 261 20 331 q 116 133 63 190 q 240 45 170 76 q 390 15 311 15 q 539 45 469 15 q 662 134 609 76 q 737 264 715 190 q 759 411 759 338 l 759 652 "},"5":{"x_min":-16.671875,"x_max":655.609375,"ha":707,"o":"m 250 780 l 250 715 q 293 729 269 725 q 333 734 318 734 q 480 707 419 734 q 580 634 541 679 q 637 536 619 590 q 655 427 655 481 l 655 384 l 655 291 q 629 164 655 222 q 556 66 602 106 q 450 4 511 26 q 319 -18 388 -18 q 188 9 250 -18 q 81 86 127 37 q 9 198 36 134 q -16 336 -16 262 l 250 336 q 271 274 250 300 q 323 248 293 248 q 373 265 352 248 q 394 311 394 283 l 394 412 q 376 461 394 440 q 323 481 358 481 q 271 456 293 481 q 250 395 250 431 l -16 395 l -16 1047 l 636 1047 l 636 780 l 250 780 m 602 1013 l 16 1013 l 16 429 l 218 429 q 255 490 225 465 q 323 515 286 515 q 401 484 375 515 q 427 412 427 452 l 427 311 q 396 241 427 268 q 323 215 365 215 q 253 239 283 215 q 218 302 223 263 l 16 302 q 44 190 19 243 q 110 98 69 137 q 204 37 151 59 q 319 15 258 15 q 436 34 381 15 q 532 90 491 54 q 597 178 573 127 q 622 291 622 229 l 622 388 l 622 427 q 606 523 622 475 q 554 611 590 572 q 464 676 519 651 q 333 701 409 701 q 310 699 323 701 q 284 693 297 697 q 260 681 270 688 q 245 665 250 675 l 216 670 l 216 813 l 602 813 l 602 1013 "}}}
